# xmcd
#
# Track frame offsets: 
#        182
#        34972
#        95095
#        117205
#        177417
#
# Disc length: 2549 seconds
#
# Revision: 10
# Processed by: cddbd v1.5.2PL0 Copyright (c) Steve Scherf et al.
# Submitted via: ExactAudioCopyFreeDBPlugin 1.0
#
DISCID=4009f305
DTITLE=Eric Burdon and War - Eric Burdon Declares "War"
DYEAR=1970
DGENRE=Blues
TTITLE0=The Vision Of Rassan
TTITLE1=Tobacco Road
TTITLE2=Spill The Wine
TTITLE3=Blues For Memphis Slim
TTITLE4=You're No Stranger
EXTD=YEAR: 1970
EXTT0=A) Dedication\nB) Roll On Kirk\n
EXTT1=A) Tobacco Road\nB) I Have A Dream\nC) Tobacco Road\n
EXTT2=
EXTT3=A) Birth\nB) Mother Earth\nC) Mr. Charlie\nD) Danish Pastry\nE) 
EXTT3=Mother Earth\n
EXTT4=
PLAYORDER=
